<svg id="Human_Resource" height="512" viewBox="0 0 64 64" width="512" xmlns="http://www.w3.org/2000/svg" data-name="Human Resource"><g fill="#78b9eb"><circle cx="25" cy="24" r="4"/><path d="m33 36v2h-16v-2a8 8 0 1 1 16 0z"/><path d="m26.2 46.6-23.2 14.4v-28l9 5.28z"/><path d="m61 61h-8-50l23.2-14.4 5.8-3.6 5.8 3.6z"/><path d="m61 33v28l-23.2-14.4 15.2-8.91z"/><path d="m53 24.72 8 8.28h-8z"/><path d="m12 23.69v9.31h-9z"/><path d="m32 3 7.73 8h-15.46z"/></g><path d="m61.72 32.31-7.72-7.99v-13.32a1 1 0 0 0 -1-1h-12.85l-7.43-7.69a1.032 1.032 0 0 0 -1.44 0l-7.43 7.69h-11.85a1 1 0 0 0 -1 1v12.29l-8.72 9.02a.976.976 0 0 0 -.28.69v28a1 1 0 0 0 1 1h58a1 1 0 0 0 1-1v-28a.976.976 0 0 0 -.28-.69zm-7.72-5.12 4.64 4.81h-4.64zm0 6.81h3.32l-3.32 1.94zm-22-29.56 5.37 5.56h-10.74zm-19 7.56h39v25.12l-14.19 8.31-5.28-3.28a1.011 1.011 0 0 0 -1.06 0l-5.28 3.28-13.19-7.73zm-2 14.16v5.84h-5.64zm0 7.84v2.53l-4.32-2.53zm-7 .75 20.26 11.87-20.26 12.58zm2.51 25.25 25.49-15.82 25.49 15.82zm53.49-.8-20.26-12.58 20.26-11.87z" fill="#006df0"/><path d="m33 15h-16a1 1 0 0 0 -1 1v22a1 1 0 0 0 1 1h16a1 1 0 0 0 1-1v-22a1 1 0 0 0 -1-1zm-1 22h-14v-1a7 7 0 0 1 14 0zm-10-13a3 3 0 1 1 3 3 3.009 3.009 0 0 1 -3-3zm10 6.36a9.065 9.065 0 0 0 -3.62-2.7 5 5 0 1 0 -6.76 0 9.065 9.065 0 0 0 -3.62 2.7v-13.36h14z" fill="#006df0"/><path d="m37 15h5v2h-5z" fill="#006df0"/><path d="m44 15h5v2h-5z" fill="#006df0"/><path d="m37 20h7v2h-7z" fill="#006df0"/><path d="m37 26h12v2h-12z" fill="#006df0"/><path d="m37 31h12v2h-12z" fill="#006df0"/></svg>